<svg width="480" height="196" fill="none" xmlns="http://www.w3.org/2000/svg"><g clip-path="url(#clip0)"><path d="M0 146.7l405.4 48.5L480 69.7 402.1 0H0v146.7z" fill="#004659"/><path opacity=".25" d="M159.175 61.473h30.811v15.953h-30.811V61.473zm89.267 25.647h20.728v22.808h-20.728V87.12zM250.923 124.082h87.499v19.462h-87.499v-19.462z" fill="#fff"/><path d="M310.757 129.044l-1.414 1.403h-4.445v-2.41l3.846-3.841h11.72l3.846 3.841v5.023l-3.846 3.841h-9.69l-1.004 1.007v.832h14.535v4.839h-19.407v-7.685l3.846-3.841h9.095l1.824-1.795-1.212-1.214h-7.694zm-53.971 0l-1.414 1.403h-4.449v-2.41l3.863-3.841h11.721l3.845 3.841v5.023l-3.845 3.841h-9.69l-1.009 1.007v.832h14.562v4.839h-19.447v-7.685l3.85-3.841h9.096l1.823-1.795-1.216-1.214h-7.69zm20.596.207l5.057-5.055h9.293l5.061 5.055v9.282l-5.061 5.055h-9.293l-5.057-5.055v-9.282zm7.074-.207l-2.202 2.2v5.279l2.202 2.199h5.263l2.203-2.199v-5.279l-2.203-2.2h-5.263zM333.025 143.58v-19.389h5.397v19.389h-5.397zM85.582 34.033V46.91H66.24v38.64H53.342v-38.64H34V34.033h51.582zm5.962 13.426l13.45-13.433h24.693l13.45 13.433v38.093h-12.908V72.67h-25.81v12.882H91.544V47.459zm18.793-.548l-5.9 5.892v6.99h25.81v-6.99l-5.918-5.892h-13.992zm79.973-12.878l10.218 10.206v11.785l-3.784 3.768 3.769 3.769v11.785L190.31 85.552h-41.379v-51.52h41.379zm-2.145 16.098l-3.221-3.22h-23.115v6.426h23.115l3.221-3.206zm-3.221 22.54l3.221-3.218-3.221-3.22h-23.115v6.437h23.115z" fill="#fff"/><path opacity=".25" d="M285.687 108.363V89.662h-10.465v18.701h-9.917v10.184h20.826v-10.184h-.444zm-63.356-28.929h28.987v10.228h-28.987V79.434zm98.003.018h14.736v39.095h-14.736V79.452zM200.53 75.347l4.11 4.105-10.21 10.198-4.11-4.106 10.21-10.197zM85.062 34.033h21.248v12.881H85.062V34.033zM130.23 72.67h31.596v12.882h-31.596V72.67zm-2.741-38.637h15.638v15.619h-15.638v-15.62z" fill="#fff"/><path d="M223.364 79.452l10.203 10.192v6.898h-6.906l-7.34-7.33h-10.636l-4.478 4.472v10.606l4.478 4.469h10.618l7.358-7.316h6.906v6.917l-10.2 10.187h-18.742l-10.204-10.187V89.644l10.204-10.192h18.739zm16.02 10.192l10.203-10.192h18.732l10.2 10.192v18.716l-10.2 10.187H249.58l-10.196-10.187V89.644zm14.264-.418l-4.486 4.473v10.605l4.478 4.469h10.619l4.474-4.469V93.699l-4.474-4.473h-10.611zm40.469 6.916v22.405h-9.785V79.452h6.924l22.433 22.409V79.452h9.785v39.095h-6.906l-22.451-22.405zm74.313-16.69v9.774h-29.357v4.887h24.464v9.774h-24.464v14.66h-9.786V79.452h39.143z" fill="#40FF98"/><path d="M86.047 46.91h-22.13V34.034h35.05L86.047 46.91z" fill="#fff"/></g><defs><clipPath id="clip0"><path fill="#fff" d="M0 0h480v195.1H0z"/></clipPath></defs></svg>