<svg version="1.1" id="Layer_1" xmlns="http://www.w3.org/2000/svg" x="0" y="0" viewBox="0 0 480 195.1" xml:space="preserve"><style>.st1{opacity:.25;fill:#fff;enable-background:new}.st2{fill:#40ff98}.st3{fill:#fff}</style><path d="M0 146.7l405.4 48.5L480 69.7 402.1 0H0v146.7z" fill="#004659"/><path class="st1" d="M15.2-116.9h30.9v16H15.2zM105.6-53.8h108.6v16.1H105.6zM104.8-91.1h20.8v22.9h-20.8z" transform="translate(144.541 178.5)"/><path class="st1" d="M142.1-69.8v-18.8h-10.5v18.8h-10v10.2h20.9v-10.2h-.4zM78.6-98.8h29.1v10.3H78.6zM176.9-98.8h14.8v39.3h-14.8z" transform="translate(144.541 178.5)"/><path transform="rotate(-45.001 341.362 -180.976)" class="st1" d="M46.4-98.7h14.5v5.8H46.4z"/><path class="st1" d="M-59.2-144.4h21.3v12.9h-21.3zM-13.9-105.6h31.7v12.9h-31.7zM-16.6-144.4H-.9v15.7h-15.7z" transform="translate(144.541 178.5)"/><g><path transform="rotate(-45.001 447.836 -286.187)" class="st2" d="M35.7-94.2h28.8v5.8H35.7z"/><path class="st2" d="M-30.1-144.4l10.2 10.2v6.9h-6.9l-7.4-7.4h-10.7l-4.5 4.5v10.7l4.5 4.5h10.7l7.4-7.4h6.9v6.9l-10.2 10.2H-49l-10.2-10.2v-18.8l10.2-10.2h18.9zM-14.1-134.2l10.2-10.2H15l10.2 10.2v18.8L15-105.2H-3.8L-14-115.4v-18.8zm14.3-.4l-4.5 4.5v10.7l4.5 4.5h10.7l4.5-4.5v-10.7l-4.5-4.5H.2zM40.9-127.7v22.5H31v-39.3h7L60.5-122v-22.5h9.8v39.3h-6.9l-22.5-22.5zM115.4-144.4v9.8H86v4.9h24.5v9.8H86v14.7h-9.8v-39.3h39.2z" transform="translate(254.284 224.137)"/></g><g><path class="st3" d="M-7.4-144.4v12.9h-19.4v38.8h-12.9v-38.8h-19.4v-12.9h51.7zM-1.4-131L12-144.4h24.8L50.3-131v38.3H37.4v-12.9H11.5v12.9H-1.4V-131zm18.8-.5l-5.9 5.9v7h25.9v-7l-5.9-5.9H17.4zM97.7-144.4l10.3 10.3v11.8l-3.8 3.8 3.8 3.8v11.8L97.7-92.7H56.1v-51.8h41.6zm-2.2 16.1l-3.2-3.2H69.1v6.5h23.2l3.2-3.3zm-3.2 22.7l3.2-3.2-3.2-3.2H69.1v6.5h23.2zM232.3-49.7l-1.2 1.2h-3.7v-2l3.2-3.2h9.7l3.2 3.2v4.2l-3.2 3.2h-8l-.8.8v.7h12.1v4h-16.1V-44l3.2-3.2h7.5l1.5-1.5-1-1h-6.4zM249.4-49.5l4.2-4.2h7.7l4.2 4.2v7.7l-4.2 4.2h-7.7l-4.2-4.2v-7.7zm5.8-.2l-1.8 1.8v4.4l1.8 1.8h4.4l1.8-1.8v-4.4l-1.8-1.8h-4.4zM161.7-49.7l-1.2 1.2h-3.7v-2l3.2-3.2h9.7l3.2 3.2v4.2l-3.2 3.2h-8l-.8.8v.7H173v4h-16.1V-44l3.2-3.2h7.5l1.5-1.5-1-1h-6.4zM178.8-49.5l4.2-4.2h7.7l4.2 4.2v7.7l-4.2 4.2H183l-4.2-4.2v-7.7zm5.8-.2l-1.8 1.8v4.4l1.8 1.8h4.4l1.8-1.8v-4.4l-1.8-1.8h-4.4z" transform="translate(93.3 178.5)"/><path class="st3" d="M-7-131.5h-22.2v-12.9H6l-13 12.9z" transform="translate(93.3 178.5)"/></g></svg>