<svg width="400" height="132" fill="none" xmlns="http://www.w3.org/2000/svg"><path opacity=".25" d="M149.463 32.974h36.789v19.049h-36.789V32.974zM256.05 63.597h24.75v27.234h-24.75V63.597zM259.013 107.731h104.476v23.238H259.013v-23.238z" fill="#fff"/><path d="M330.456 113.656l-1.689 1.675h-5.306v-2.878l4.591-4.586h13.995l4.591 4.586v5.999l-4.591 4.585h-11.57l-1.199 1.203v.993h17.355v5.778h-23.172v-9.177l4.591-4.585h10.86l2.178-2.144-1.446-1.449h-9.188zm-64.443 0l-1.688 1.675h-5.312v-2.878l4.612-4.586h13.995l4.592 4.586v5.999l-4.592 4.585h-11.57l-1.204 1.203v.993h17.387v5.778h-23.22v-9.177l4.597-4.585h10.86l2.177-2.144-1.451-1.449h-9.183zm24.592.247l6.038-6.036h11.097l6.043 6.036v11.083l-6.043 6.035h-11.097l-6.038-6.035v-11.083zm8.447-.247l-2.63 2.626v6.303l2.63 2.627h6.285l2.629-2.627v-6.303l-2.629-2.626h-6.285zM357.044 131.012v-23.151h6.445v23.151h-6.445zM61.59.21v15.376H38.496v46.139h-15.4V15.586H0V.21h61.59zm7.119 16.03L84.769.2h29.484l16.06 16.04v45.485H114.9V46.344H84.083v15.38H68.709V16.242zm22.44-.654l-7.045 7.036v8.345h30.817v-8.345l-7.066-7.036H91.149zM186.638.21l12.201 12.186v14.071l-4.518 4.5 4.501 4.5v14.072l-12.184 12.186h-49.407V.21h49.407zm-2.561 19.221l-3.845-3.845h-27.601v7.673h27.601l3.845-3.828zm-3.845 26.913l3.845-3.841-3.845-3.845h-27.601v7.686h27.601z" fill="#fff"/><path opacity=".25" d="M300.522 88.962v-22.33h-12.496v22.33h-11.84v12.16h24.866v-12.16h-.53zM224.873 54.42h34.611v12.212h-34.611V54.42zm117.018.022h17.596v46.68h-17.596v-46.68zM198.841 49.54l4.908 4.902-12.191 12.176-4.907-4.902 12.19-12.176zM60.97.21h25.37v15.38H60.97V.21zm53.93 46.134h37.727v15.38H114.9v-15.38zM111.627.21H130.3v18.65h-18.673V.21z" fill="#fff"/><path d="M226.106 54.442l12.183 12.168v8.237h-8.246l-8.764-8.752h-12.7l-5.347 5.34v12.663l5.347 5.337h12.679l8.785-8.736h8.246v8.259l-12.179 12.164h-22.379l-12.184-12.164V66.61l12.184-12.168h22.375zm19.128 12.168l12.184-12.168h22.366l12.179 12.168v22.348l-12.179 12.164h-22.375l-12.175-12.164V66.61zm17.032-.498l-5.356 5.34v12.664l5.347 5.336h12.679l5.343-5.336V71.453l-5.343-5.341h-12.67zm48.322 8.258v26.752h-11.685v-46.68h8.269l26.785 26.756V54.442h11.684v46.68h-8.247L310.588 74.37zm88.731-19.928v11.67h-35.053v5.835h29.211v11.67h-29.211v17.505h-11.685v-46.68h46.738z" fill="#40FF98"/><path d="M62.146 15.586H35.722V.21h41.85L62.146 15.586z" fill="#fff"/></svg>