<svg xmlns="http://www.w3.org/2000/svg" viewBox="0 0 1000 400"><defs><style>.cls-1,.cls-3{fill:#fff}.cls-1{opacity:.25}.cls-2{fill:#40ff98}</style></defs><g id="Layer_1" data-name="Layer 1"><path class="cls-1" d="M384.35 123.41h84.76v43.94h-84.76zM632.23 296.34h297.75v44.24H632.23zM629.92 194.05h57.02v62.82h-57.02z"/><path class="cls-1" d="M732.38 252.56v-51.51h-28.79v51.51h-27.28v28.05h57.29v-28.05h-1.22zM558.09 172.88h79.74v28.17h-79.74zM827.69 172.93h40.54v107.68h-40.54z"/><path class="cls-1" transform="rotate(45 489.725 181.32)" d="M481.73 161.46h15.99v39.72h-15.99z"/><path class="cls-1" d="M180.47 47.83h58.45v35.48h-58.45zM304.72 154.25h86.92v35.48h-86.92zM297.18 47.83h43.02v43.02h-43.02z"/><path class="cls-2" transform="rotate(45 781.005 318.593)" d="M773.01 279.11H789v78.98h-15.99z"/><path class="cls-2" d="M560.93 172.93L589 201v19h-19l-20.19-20.19h-29.26l-12.32 12.32v29.21l12.32 12.31h29.21L570 233.5h19v19.05l-28.06 28.06h-51.56l-28.07-28.06V201l28.07-28.07zM605 201l28.07-28.07h51.53L712.66 201v51.55l-28.06 28.06h-51.55L605 252.55zm39.24-1.15l-12.34 12.32v29.21l12.32 12.31h29.21l12.31-12.31v-29.21l-12.31-12.32zM755.57 218.9v61.71h-26.92V172.93h19.05l61.71 61.72v-61.72h26.92v107.68h-19zM960 172.93v26.92h-80.76v13.46h67.3v26.92h-67.3v40.38h-26.92V172.93z"/><path class="cls-3" d="M181.9 47.83V83.3h-53.21v106.43H93.21V83.3H40V47.83zM198.3 84.81l37-37h67.93l37 37v104.92h-35.51v-35.48h-71v35.48H198.3zM250 83.3l-16.23 16.23v19.25h71V99.53L288.49 83.3zM470 47.83l28.11 28.11v32.46l-10.41 10.38 10.37 10.38v32.46L470 189.73H356.17V47.83zm-5.9 44.34l-8.86-8.87h-63.59V101h63.59zm-8.86 62.08l8.86-8.86-8.86-8.87h-63.59v17.73zM839.15 307.62l-3.21 3.19h-10.09v-5.48l8.73-8.73h26.61l8.73 8.73v11.42l-8.73 8.73h-22l-2.28 2.29v1.89h33v11h-44.06v-17.47l8.73-8.73h20.65l4.14-4.08-2.75-2.76zM885.91 308.09l11.49-11.49h21.1l11.5 11.49v21.1l-11.5 11.49h-21.1l-11.49-11.49zm16.06-.47l-5 5v12l5 5h12l5-5v-12l-5-5zM645.54 307.62l-3.21 3.19h-10.1v-5.48l8.77-8.73h26.61l8.73 8.73v11.42l-8.73 8.73h-22l-2.29 2.29v1.89h33.06v11h-44.15v-17.47l8.74-8.73h20.65l4.14-4.08-2.76-2.76zM692.3 308.09l11.48-11.49h21.1l11.49 11.49v21.1l-11.49 11.49h-21.1l-11.48-11.49zm16.06-.47l-5 5v12l5 5h11.95l5-5v-12l-5-5z"/><path class="cls-3" d="M183.18 83.3H122.3V47.83h96.42L183.18 83.3z"/></g></svg>