<svg id="Layer_1" enable-background="new 0 0 480 480" height="512" viewBox="0 0 480 480" width="512" xmlns="http://www.w3.org/2000/svg"><g style="fill:#fff;"><path d="m175.3 232.2c-15.8 0-48.2 20.8-51.2 59-1 12.4 8.3 23.3 20.7 24.3 10 .8 19.4-5.3 22.9-14.7 2.7-7.2 13.3-7 15.5 1.1 3.8 8.8 12.9 14.4 22.5 13.6 12.4-1 21.7-11.9 20.8-24.3-3-38.2-35.4-59-51.2-59z"/><path d="m427.8 95.1-200.3-92.2c-16-7.4-35.1-.3-42.5 15.7l-20.3 44c-2.4 5.3 1.4 11.3 7.3 11.3h113.5c26.5 0 48 21.5 48 48v218c0 8.6 11.7 11.1 15.3 3.3l94.7-205.7c7.4-15.9.4-35-15.7-42.4z"/><path d="m285.5 90h-220c-17.6 0-32 14.4-32 32v326c0 17.6 14.4 32 32 32h220c17.6 0 32-14.4 32-32v-326c0-17.6-14.3-32-32-32zm-193 68c0 4.4-3.6 8-8 8s-8-3.6-8-8v-14c0-4.4 3.6-8 8-8s8 3.6 8 8zm91 167.7v20.6c0 4.4-3.6 8-8 8s-8-3.6-8-8v-21c-26.8 17.4-61.9-3.6-59.4-35.4 3.5-45 42.1-73.8 67.1-73.8s0 0 0 0c25 0 63.6 28.8 67.1 73.8 2.6 31.7-32.1 52.5-58.8 35.8zm91 100.3c0 4.4-3.6 8-8 8s-8-3.6-8-8v-14c0-4.4 3.6-8 8-8s8 3.6 8 8z"/></g></svg>
