<?xml version="1.0" encoding="utf-8"?>
<!-- Generator: Adobe Illustrator 23.1.0, SVG Export Plug-In . SVG Version: 6.00 Build 0)  -->
<svg version="1.1" id="Layer_1" xmlns="http://www.w3.org/2000/svg" xmlns:xlink="http://www.w3.org/1999/xlink" x="0px" y="0px"
	 viewBox="0 0 480 195.1" style="enable-background:new 0 0 480 195.1;" xml:space="preserve">
<style type="text/css">
	.st0{fill:#004659;}
	.st1{opacity:0.25;fill:#FFFFFF;enable-background:new    ;}
	.st2{fill:#40FF98;}
	.st3{fill:#FFFFFF;}
</style>
<g transform="translate(27.5 27.5)">
	<g transform="matrix(1, 0, 0, 1, -27.5, -27.5)">
		<path class="st0" d="M0,146.7l405.4,48.5L480,69.7L402.1,0H0V146.7z"/>
	</g>
	<g transform="translate(25.8 103.173)">
		<g transform="translate(91.241 47.827)">
			<rect x="15.2" y="-116.9" class="st1" width="30.9" height="16"/>
			<rect x="105.6" y="-53.8" class="st1" width="108.6" height="16.1"/>
			<rect x="104.8" y="-91.1" class="st1" width="20.8" height="22.9"/>
			<path class="st1" d="M142.1-69.8v-18.8h-10.5v18.8h-10v10.2h20.9v-10.2H142.1z"/>
			<rect x="78.6" y="-98.8" class="st1" width="29.1" height="10.3"/>
			<rect x="176.9" y="-98.8" class="st1" width="14.8" height="39.3"/>
			
				<rect x="46.4" y="-98.7" transform="matrix(0.7071 -0.7071 0.7071 0.7071 83.4123 9.8693)" class="st1" width="14.5" height="5.8"/>
			<rect x="-59.2" y="-144.4" class="st1" width="21.3" height="12.9"/>
			<rect x="-13.9" y="-105.6" class="st1" width="31.7" height="12.9"/>
			<rect x="-16.6" y="-144.4" class="st1" width="15.7" height="15.7"/>
		</g>
		<g transform="translate(200.984 93.464)">
			
				<rect x="35.7" y="-94.2" transform="matrix(0.7071 -0.7071 0.7071 0.7071 79.2502 8.7035)" class="st2" width="28.8" height="5.8"/>
			<path class="st2" d="M-30.1-144.4l10.2,10.2v6.9h-6.9l-7.4-7.4h-10.7l-4.5,4.5v10.7l4.5,4.5h10.7l7.4-7.4h6.9v6.9l-10.2,10.2H-49
				l-10.2-10.2v-18.8l10.2-10.2H-30.1z"/>
			<path class="st2" d="M-14.1-134.2l10.2-10.2H15l10.2,10.2v18.8L15-105.2H-3.8l-10.2-10.2V-134.2z M0.2-134.6l-4.5,4.5v10.7
				l4.5,4.5h10.7l4.5-4.5v-10.7l-4.5-4.5L0.2-134.6z"/>
			<path class="st2" d="M40.9-127.7v22.5H31v-39.3H38l22.5,22.5v-22.5h9.8v39.3h-6.9L40.9-127.7z"/>
			<path class="st2" d="M115.4-144.4v9.8H86v4.9h24.5v9.8H86v14.7h-9.8v-39.3H115.4z"/>
		</g>
		<g transform="translate(40 47.827)">
			<path class="st3" d="M-7.4-144.4v12.9h-19.4v38.8h-12.9v-38.8h-19.4v-12.9H-7.4z"/>
			<path class="st3" d="M-1.4-131L12-144.4h24.8L50.3-131v38.3H37.4v-12.9H11.5v12.9H-1.4V-131z M17.4-131.5l-5.9,5.9v7h25.9v-7
				l-5.9-5.9H17.4z"/>
			<path class="st3" d="M97.7-144.4l10.3,10.3v11.8l-3.8,3.8l3.8,3.8v11.8L97.7-92.7H56.1v-51.8H97.7z M95.5-128.3l-3.2-3.2H69.1
				v6.5h23.2L95.5-128.3z M92.3-105.6l3.2-3.2l-3.2-3.2H69.1v6.5H92.3z"/>
			<path class="st3" d="M232.3-49.7l-1.2,1.2h-3.7v-2l3.2-3.2h9.7l3.2,3.2v4.2l-3.2,3.2h-8l-0.8,0.8v0.7h12.1v4h-16.1V-44l3.2-3.2
				h7.5l1.5-1.5l-1-1L232.3-49.7z"/>
			<path class="st3" d="M249.4-49.5l4.2-4.2h7.7l4.2,4.2v7.7l-4.2,4.2h-7.7l-4.2-4.2V-49.5z M255.2-49.7l-1.8,1.8v4.4l1.8,1.8h4.4
				l1.8-1.8v-4.4l-1.8-1.8H255.2z"/>
			<path class="st3" d="M161.7-49.7l-1.2,1.2h-3.7v-2l3.2-3.2h9.7l3.2,3.2v4.2l-3.2,3.2h-8l-0.8,0.8v0.7h12.1v4h-16.1V-44l3.2-3.2
				h7.5l1.5-1.5l-1-1L161.7-49.7z"/>
			<path class="st3" d="M178.8-49.5l4.2-4.2h7.7l4.2,4.2v7.7l-4.2,4.2h-7.7l-4.2-4.2V-49.5z M184.6-49.7l-1.8,1.8v4.4l1.8,1.8h4.4
				l1.8-1.8v-4.4l-1.8-1.8H184.6z"/>
			<path class="st3" d="M-7-131.5h-22.2v-12.9H6L-7-131.5z"/>
		</g>
	</g>
</g>
</svg>
