<svg width="480" height="196" viewBox="0 0 480 196" fill="none" xmlns="http://www.w3.org/2000/svg">
<g clip-path="url(#clip0)">
<path d="M0 146.7L405.4 195.2L480 69.7L402.1 0H0V146.7Z" fill="#004659"/>
<path opacity="0.25" d="M159.175 61.4733H189.986V77.4264H159.175V61.4733ZM248.442 87.1202H269.17V109.928H248.442V87.1202Z" fill="white"/>
<path opacity="0.25" d="M250.923 124.082H338.422V143.544H250.923V124.082Z" fill="white"/>
<path d="M310.757 129.044L309.343 130.447H304.898V128.037L308.744 124.196H320.464L324.31 128.037V133.06L320.464 136.901H310.774L309.77 137.908V138.74H324.305V143.579H304.898V135.894L308.744 132.053H317.839L319.663 130.258L318.451 129.044H310.757ZM256.786 129.044L255.372 130.447H250.923V128.037L254.786 124.196H266.507L270.352 128.037V133.06L266.507 136.901H256.817L255.808 137.908V138.74H270.37V143.579H250.923V135.894L254.773 132.053H263.869L265.692 130.258L264.476 129.044H256.786ZM277.382 129.251L282.439 124.196H291.732L296.793 129.251V138.533L291.732 143.588H282.439L277.382 138.533V129.251ZM284.456 129.044L282.254 131.244V136.523L284.456 138.722H289.719L291.922 136.523V131.244L289.719 129.044H284.456Z" fill="white"/>
<path d="M333.025 143.58V124.191H338.422V143.58H333.025Z" fill="white"/>
<path d="M85.5822 34.0328V46.9108H66.2398V85.5518H53.3424V46.9108H34V34.0328H85.5822ZM91.5437 47.459L104.994 34.0256H129.687L143.137 47.459V85.5518H130.229V72.6702H104.419V85.5518H91.5437V47.459ZM110.337 46.9108L104.437 52.8033V59.7923H130.247V52.8033L124.329 46.9108H110.337ZM190.31 34.0328L200.528 44.2386V56.0237L196.744 59.7923L200.513 63.5609V75.346L190.31 85.5518H148.931V34.0328H190.31ZM188.165 50.1311L184.944 46.9108H161.829V53.337H184.944L188.165 50.1311ZM184.944 72.6702L188.165 69.4535L184.944 66.2331H161.829V72.6702H184.944Z" fill="white"/>
<path opacity="0.25" d="M285.687 108.363V89.6617H275.222V108.363H265.305V118.547H286.131V108.363H285.687ZM222.331 79.4341H251.318V89.6617H222.331V79.4341ZM320.334 79.4523H335.07V118.547H320.334V79.4523Z" fill="white"/>
<path opacity="0.25" d="M200.53 75.3473L204.64 79.4523L194.43 89.6495L190.32 85.5444L200.53 75.3473Z" fill="white"/>
<path opacity="0.25" d="M85.0623 34.0328H106.31V46.9144H85.0623V34.0328ZM130.229 72.6702H161.825V85.5518H130.229V72.6702ZM127.488 34.0328H143.126V49.6519H127.488V34.0328Z" fill="white"/>
<path d="M223.364 79.4523L233.567 89.6435V96.5417H226.661L219.321 89.2115H208.685L204.207 93.6844V104.29L208.685 108.759H219.303L226.661 101.443H233.567V108.36L223.367 118.547H204.625L194.421 108.36V89.6435L204.625 79.4523H223.364ZM239.384 89.6435L249.587 79.4523H268.319L278.519 89.6435V108.36L268.319 118.547H249.58L239.384 108.36V89.6435ZM253.648 89.226L249.162 93.6989V104.304L253.64 108.773H264.259L268.733 104.304V93.6989L264.259 89.226H253.648ZM294.117 96.1424V118.547H284.332V79.4523H291.256L313.689 101.861V79.4523H323.474V118.547H316.568L294.117 96.1424ZM368.43 79.4523V89.226H339.073V94.1128H363.537V103.887H339.073V118.547H329.287V79.4523H368.43Z" fill="#40FF98"/>
<path d="M86.0475 46.9108H63.9169V34.0328H98.9666L86.0475 46.9108Z" fill="white"/>
</g>
<defs>
<clipPath id="clip0">
<rect width="480" height="195.1" fill="white"/>
</clipPath>
</defs>
</svg>
