<svg width="400" height="132" viewBox="0 0 400 132" fill="none" xmlns="http://www.w3.org/2000/svg">
  <path opacity="0.25" d="M149.463 32.9743H186.252V52.0228H149.463V32.9743ZM256.05 63.5975H280.8V90.8307H256.05V63.5975Z" fill="white" />
  <path opacity="0.25" d="M259.013 107.731H363.489V130.969H259.013V107.731Z" fill="white" />
  <path d="M330.456 113.656L328.767 115.331H323.461V112.453L328.052 107.867H342.047L346.638 112.453V118.452L342.047 123.037H330.477L329.278 124.24V125.233H346.633V131.011H323.461V121.834L328.052 117.249H338.912L341.09 115.105L339.644 113.656H330.456ZM266.013 113.656L264.325 115.331H259.013V112.453L263.625 107.867H277.62L282.212 112.453V118.452L277.62 123.037H266.05L264.846 124.24V125.233H282.233V131.011H259.013V121.834L263.61 117.249H274.47L276.647 115.105L275.196 113.656H266.013ZM290.605 113.903L296.643 107.867H307.74L313.783 113.903V124.986L307.74 131.021H296.643L290.605 124.986V113.903ZM299.052 113.656L296.422 116.282V122.585L299.052 125.212H305.337L307.966 122.585V116.282L305.337 113.656H299.052Z" fill="white" />
  <path d="M357.044 131.012V107.861H363.489V131.012H357.044Z" fill="white" />
  <path d="M61.5906 0.209598V15.5862H38.4952V61.7248H23.0954V15.5862H0V0.209598H61.5906ZM68.7089 16.2408L84.7685 0.200928H114.253L130.313 16.2408V61.7248H114.9V46.3438H84.0827V61.7248H68.7089V16.2408ZM91.1489 15.5862L84.1044 22.6221V30.9672H114.921V22.6221L107.855 15.5862H91.1489ZM186.638 0.209598L198.839 12.3956V26.4673L194.321 30.9672L198.822 35.467V49.5388L186.638 61.7248H137.231V0.209598H186.638ZM184.077 19.4315L180.232 15.5862H152.631V23.2594H180.232L184.077 19.4315ZM180.232 46.3438L184.077 42.5029L180.232 38.6577H152.631V46.3438H180.232Z" fill="white" />
  <path opacity="0.25" d="M300.522 88.9622V66.6321H288.026V88.9622H276.186V101.122H301.052V88.9622H300.522ZM224.873 54.4201H259.484V66.6321H224.873V54.4201ZM341.891 54.4418H359.487V101.122H341.891V54.4418Z" fill="white" />
  <path opacity="0.25" d="M198.841 49.5403L203.749 54.4419L191.558 66.6176L186.651 61.716L198.841 49.5403Z" fill="white" />
  <path opacity="0.25" d="M60.97 0.209595H86.3398V15.5906H60.97V0.209595ZM114.9 46.3438H152.627V61.7248H114.9V46.3438ZM111.627 0.209595H130.3V18.8592H111.627V0.209595Z" fill="white" />
  <path d="M226.106 54.4418L238.289 66.6104V74.8471H230.043L221.279 66.0945H208.579L203.232 71.4354V84.0982L208.579 89.4347H221.258L230.043 80.6995H238.289V88.9579L226.11 101.122H203.731L191.547 88.9579V66.6104L203.731 54.4418H226.106ZM245.234 66.6104L257.418 54.4418H279.784L291.963 66.6104V88.9579L279.784 101.122H257.409L245.234 88.9579V66.6104ZM262.266 66.1119L256.91 71.4527V84.1156L262.257 89.4521H274.936L280.279 84.1156V71.4527L274.936 66.1119H262.266ZM310.588 74.3703V101.122H298.903V54.4418H307.172L333.957 81.198V54.4418H345.641V101.122H337.394L310.588 74.3703ZM399.319 54.4418V66.1119H364.266V71.9469H393.477V83.617H364.266V101.122H352.581V54.4418H399.319Z" fill="#40FF98" />
  <path d="M62.1462 15.5862H35.7217V0.209595H77.5721L62.1462 15.5862Z" fill="white" />
</svg>
