<svg xmlns="http://www.w3.org/2000/svg" viewBox="0 0 1000 400"><defs><style>.cls-1,.cls-3{fill:#fff;}.cls-1{opacity:0.25;}.cls-2{fill:#40ff98;}</style></defs><title>TABConf-2020-Logo_Color-Dark</title><g id="Layer_1" data-name="Layer 1"><rect class="cls-1" x="384.35" y="123.41" width="84.76" height="43.94"/><rect class="cls-1" x="632.23" y="296.34" width="297.75" height="44.24"/><rect class="cls-1" x="629.92" y="194.05" width="57.02" height="62.82"/><polygon class="cls-1" points="732.38 252.56 732.38 201.05 703.59 201.05 703.59 252.56 676.31 252.56 676.31 280.61 733.6 280.61 733.6 252.56 732.38 252.56"/><rect class="cls-1" x="558.09" y="172.88" width="79.74" height="28.17"/><rect class="cls-1" x="827.69" y="172.93" width="40.54" height="107.68"/><rect class="cls-1" x="481.73" y="161.46" width="15.99" height="39.72" transform="translate(271.65 -293.18) rotate(45)"/><rect class="cls-1" x="180.47" y="47.83" width="58.45" height="35.48"/><rect class="cls-1" x="304.72" y="154.25" width="86.92" height="35.48"/><rect class="cls-1" x="297.18" y="47.83" width="43.02" height="43.02"/><rect class="cls-2" x="773.01" y="279.11" width="15.99" height="78.98" transform="translate(454.03 -458.94) rotate(45)"/><path class="cls-2" d="M560.93,172.93,589,201v19H570l-20.19-20.19H520.55l-12.32,12.32v29.21l12.32,12.31h29.21L570,233.5h19v19.05l-28.06,28.06H509.38l-28.07-28.06V201l28.07-28.07Z"/><path class="cls-2" d="M605,201l28.07-28.07H684.6L712.66,201v51.55L684.6,280.61H633.05L605,252.55Zm39.24-1.15L631.9,212.17v29.21l12.32,12.31h29.21l12.31-12.31V212.17l-12.31-12.32Z"/><path class="cls-2" d="M755.57,218.9v61.71H728.65V172.93H747.7l61.71,61.72V172.93h26.92V280.61h-19Z"/><path class="cls-2" d="M960,172.93v26.92H879.24v13.46h67.3v26.92h-67.3v40.38H852.32V172.93Z"/><path class="cls-3" d="M181.9,47.83V83.3H128.69V189.73H93.21V83.3H40V47.83Z"/><path class="cls-3" d="M198.3,84.81l37-37h67.93l37,37V189.73H304.72V154.25h-71v35.48H198.3ZM250,83.3,233.77,99.53v19.25h71V99.53L288.49,83.3Z"/><path class="cls-3" d="M470,47.83l28.11,28.11V108.4L487.7,118.78l10.37,10.38v32.46L470,189.73H356.17V47.83ZM464.1,92.17l-8.86-8.87H391.65V101h63.59Zm-8.86,62.08,8.86-8.86-8.86-8.87H391.65v17.73Z"/><path class="cls-3" d="M839.15,307.62l-3.21,3.19H825.85v-5.48l8.73-8.73h26.61l8.73,8.73v11.42l-8.73,8.73h-22l-2.28,2.29v1.89h33v11H825.85V323.19l8.73-8.73h20.65l4.14-4.08-2.75-2.76Z"/><path class="cls-3" d="M885.91,308.09,897.4,296.6h21.1L930,308.09v21.1L918.5,340.68H897.4l-11.49-11.49Zm16.06-.47-5,5v12l5,5h12l5-5v-12l-5-5Z"/><path class="cls-3" d="M645.54,307.62l-3.21,3.19h-10.1v-5.48L641,296.6h26.61l8.73,8.73v11.42l-8.73,8.73h-22l-2.29,2.29v1.89h33.06v11H632.23V323.19l8.74-8.73h20.65l4.14-4.08L663,307.62Z"/><path class="cls-3" d="M692.3,308.09l11.48-11.49h21.1l11.49,11.49v21.1l-11.49,11.49h-21.1L692.3,329.19Zm16.06-.47-5,5v12l5,5h11.95l5-5v-12l-5-5Z"/><polygon class="cls-3" points="183.18 83.3 122.3 83.3 122.3 47.83 218.72 47.83 183.18 83.3"/></g></svg>